<svg xmlns="http://www.w3.org/2000/svg" version="1.1" xmlns:xlink="http://www.w3.org/1999/xlink" xmlns:svgjs="http://svgjs.dev/svgjs" width="100%" height="100%" viewBox="0 0 1000 600"><rect width="1000" height="600" x="0" y="0" fill="#f4a950"/><g><rect width="333.3333333333333" height="333.3333333333333" rx="13.333333333333334" ry="13.333333333333334" y="240.50922368557752" fill="#161b21" transform="matrix(0.572640639478539,0,0,0.572640639478539,0,66.8345402684246)" x="218.28704833984375"/><path d="M299.8715490419302 427.14416639696725L323.6766285437575 429.5526803230345Q322.86445524310693 433.5855408504029 322.86445524310693 439.94289737618493Q322.86445524310693 446.3002539019671 325.5810349039037 451.7334132235606Q328.29761456470044 457.19457852103864 332.75056473033635 457.19457852103864L332.75056473033635 457.19457852103864Q338.79985552138896 457.19457852103864 341.5164351821857 447.8125765997302Q344.23301484298247 438.4305746784218 344.23301484298247 427.34020822815876L344.23301484298247 427.34020822815876Q344.23301484298247 380.96231216342227 340.5922379779971 334.38837426749427L340.5922379779971 334.38837426749427L369.0463094766519 336.79688819356153Q371.8469070651022 373.09263293987703 371.8469070651022 427.34020822815876L371.8469070651022 427.34020822815876Q371.8469070651022 445.4880806013165 364.0052338174414 462.0116063731731L364.0052338174414 462.0116063731731Q359.972373290073 470.69345889736894 352.60680163244876 476.2386421225005Q345.2412299748246 481.783825347632 335.7752101258627 481.783825347632L335.7752101258627 481.783825347632Q318.83159471573856 481.783825347632 308.55340156612607 469.9933095002564Q298.24720244062905 458.20279365288076 298.24720244062905 440.6430467732975L298.24720244062905 440.6430467732975Q298.24720244062905 434.59375598224494 299.8715490419302 427.14416639696725L299.8715490419302 427.14416639696725ZM466.4230876270678 395.8894973098622L441.41375116220684 387.62773442393393Q444.0463128953501 377.74162493670445 444.0463128953501 371.07620267619285Q444.0463128953501 364.43878639156566 440.4055360303648 360.0978601294678Q436.7927651412639 355.7569338673698 431.0515400849409 355.7569338673698Q425.2823090527333 355.7569338673698 421.47349633244096 361.4141409960394Q417.6366776362641 367.0433421488244 417.6366776362641 374.29688990291066L417.6366776362641 374.29688990291066Q417.6366776362641 388.4119017487 433.76811974573764 398.494053067121L433.76811974573764 398.494053067121Q449.8995618552112 408.99629402380947 455.7528108150723 413.6172800447524Q461.5780537990488 418.2662720415799 464.01457370100053 422.10309073775676L464.01457370100053 422.10309073775676Q470.0638644920531 431.9892002249862 470.0638644920531 442.4634352057902L470.0638644920531 442.4634352057902Q470.0638644920531 460.61130757894796 457.85325900641 471.3936082944815Q445.6706594966513 482.175909010015 430.3233847119438 482.175909010015L430.3233847119438 482.175909010015Q412.17551233878606 482.175909010015 399.88088892548933 466.8566402011921L399.88088892548933 466.8566402011921Q391.002994570102 455.766273750929 383.5534049848243 439.24274797907236L383.5534049848243 439.24274797907236L403.10157615220714 429.74872215422596Q407.7505681490346 441.8473037363311 414.69605016839125 450.2210905257975Q421.66953816363247 458.5948773152638 429.5392173871777 458.5948773152638L429.5392173871777 458.5948773152638Q434.5802930463882 458.5948773152638 438.61315357375656 455.37419008854596Q442.646014101125 452.15350286182814 442.646014101125 445.6001045048545Q442.646014101125 439.0467061478809 437.60493844191444 433.3894990192113Q432.563862782704 427.7322918905418 424.07805208969967 421.9070489065652Q415.62024737257985 416.05379994670415 410.97125537575243 412.3290051540653Q406.3502693548095 408.5762043855419 400.69306222613994 402.75096140156535L400.69306222613994 402.75096140156535Q389.9947794382599 391.43654714422627 389.9947794382599 373.7927823369896Q389.9947794382599 356.1490175297529 402.3174088274411 344.16245985118576Q414.6120322407378 332.1759021726186 431.55564765086194 332.1759021726186Q448.47125708510157 332.1759021726186 460.0657311012857 345.2826988865658Q471.6602051174698 358.3894956005131 471.6602051174698 372.19644171157296Q471.6602051174698 386.00338782263276 466.4230876270678 395.8894973098622L466.4230876270678 395.8894973098622Z " fill="#f4a950" transform="matrix(0.572640639478539,0,0,0.572640639478539,0,66.8345402684246)"/><path d="M636.2046058419787 406.71220427567056L654.5367401921551 408.5669849275708Q653.9112909025607 411.6726641586595 653.9112909025607 416.5684223910007Q653.9112909025607 421.4641806233419 656.0033109401691 425.64822069855865Q658.0953309777775 429.8538279906579 661.5245184621047 429.8538279906579L661.5245184621047 429.8538279906579Q666.1830373087377 429.8538279906579 668.275057346346 422.6288103350002Q670.3670773839544 415.4037926793424 670.3670773839544 406.8631747938485L670.3670773839544 406.8631747938485Q670.3670773839544 371.14786363632845 667.5633391892216 335.2815819606305L667.5633391892216 335.2815819606305L689.4756315419029 337.13636261253066Q691.632353230159 365.08747569232895 691.632353230159 406.8631747938485L691.632353230159 406.8631747938485Q691.632353230159 420.83873133374766 685.5935325030421 433.5633892944583L685.5935325030421 433.5633892944583Q682.4878532719533 440.249226528052 676.8156752318399 444.519535470799Q671.1434971917265 448.78984441354595 663.8537778854211 448.78984441354595L663.8537778854211 448.78984441354595Q650.8056116714721 448.78984441354595 642.8904430755724 439.71004610598806Q634.9537072627902 430.6302477984301 634.9537072627902 417.1076028130647L634.9537072627902 417.1076028130647Q634.9537072627902 412.44908396643166 636.2046058419787 406.71220427567056L636.2046058419787 406.71220427567056ZM720.2089155995516 416.1802124871146L720.2089155995516 416.1802124871146Q720.2089155995516 433.7359270295188 727.9731136772732 433.7359270295188L727.9731136772732 433.7359270295188Q731.4023011616003 433.7359270295188 733.7315605849169 423.8581416973061Q736.0608200082335 414.001923581976 736.0608200082335 405.0083941419483L736.0608200082335 405.0083941419483Q736.0608200082335 385.1234201762276 729.5259532928176 385.1234201762276L729.5259532928176 385.1234201762276Q725.3419132176009 385.1234201762276 722.7754144085761 395.7560580993299Q720.2089155995516 406.38869602243216 720.2089155995516 416.1802124871146ZM702.0493189844356 414.77834338974816L702.0493189844356 414.77834338974816Q702.0493189844356 400.34987529531526 707.9371691933746 386.525289273594L707.9371691933746 386.525289273594Q711.0428484244633 379.53751100364445 716.7150264645767 375.11623154271956Q722.3872045046901 370.6733848649121 729.3749827746396 370.6733848649121Q736.3627610445892 370.6733848649121 741.4094897951084 373.86533296353105Q746.4562185456275 377.05728106215 749.0874190052999 382.31968198149474L749.0874190052999 382.31968198149474Q754.2204166233493 392.73664773577144 754.2204166233493 405.0083941419483L754.2204166233493 405.0083941419483Q754.2204166233493 421.9170921778757 747.31890722093 435.051527259355Q740.3958306016281 448.1643951239517 727.9731136772732 448.1643951239517L727.9731136772732 448.1643951239517Q702.0493189844356 448.1643951239517 702.0493189844356 414.77834338974816ZM792.2649872041859 395.21687767726587L792.2649872041859 395.21687767726587Q792.2649872041859 385.89983998399975 787.6064683575528 385.89983998399975L787.6064683575528 385.89983998399975Q785.2772089342363 385.89983998399975 783.3361594148058 388.1428305397861Q781.3951098953754 390.4073883124549 781.3951098953754 394.2032184837855Q781.3951098953754 398.0206158719987 782.8616806433895 400.5008458134932Q784.3498186082862 402.9810757549876 788.2966192977947 405.3966040458344Q792.2649872041859 407.7905651197986 794.5079777599722 409.2787030846953Q796.772535532641 410.74527383270936 799.8782147637297 413.3764742923818L799.8782147637297 413.3764742923818Q806.240543744085 418.9839506818475 806.240543744085 427.740240736167Q806.240543744085 436.5180980073691 799.6409753780215 441.9530366617743Q793.041407011958 447.3879753161795 784.80273016282 447.3879753161795Q776.5856205305645 447.3879753161795 769.986052164501 442.96669585525467Q763.3864837984374 438.5454163943297 759.3534142413987 431.859579160736L759.3534142413987 431.859579160736L767.721494391832 422.39157094929203Q773.9328528540095 433.11047773992453 780.7696606057812 433.11047773992453L780.7696606057812 433.11047773992453Q783.0989200290977 433.11047773992453 784.80273016282 431.7948775100884Q786.5281075134249 430.4577100633696 786.5281075134249 428.1284506400531L786.5281075134249 428.1284506400531Q786.5281075134249 423.16799075706416 779.3677915084147 418.9839506818475L779.3677915084147 418.9839506818475Q771.7761311657534 414.77834338974816 767.4195533554763 409.6669129885814Q763.062975545199 404.533915370532 763.062975545199 395.13060880973563Q763.062975545199 385.7488694658219 770.8271736229208 378.22191077380825Q778.5913717006425 370.6733848649121 787.5201994900226 370.6733848649121Q796.4490272794026 370.6733848649121 801.6682937649822 376.82004167644186Q806.8659930336793 382.945131271089 806.8659930336793 393.3620970253657L806.8659930336793 393.3620970253657Q806.8659930336793 397.54613710058237 805.9386027077292 402.35562646539336L805.9386027077292 402.35562646539336L791.7905084327696 401.12629510308744Q792.2649872041859 397.54613710058237 792.2649872041859 395.21687767726587ZM837.9227853445663 432.9595072217466L837.9227853445663 432.9595072217466Q843.8106355535053 432.9595072217466 850.496472787099 421.61515114151985L850.496472787099 421.61515114151985L862.2937404218595 428.6029294114694Q859.3390317089488 433.7359270295188 856.6215623817461 437.29451781514126Q853.9040930545435 440.8746758176463 848.4691544001383 444.13132556691295Q843.0342157457331 447.3879753161795 836.3699457290219 447.3879753161795L836.3699457290219 447.3879753161795Q826.5784292643395 447.3879753161795 819.9141592476284 439.0845968163938Q813.2283220140346 430.78121831660803 813.2283220140346 416.65469125853093L813.2283220140346 416.65469125853093Q813.2283220140346 400.5008458134932 818.9652017047956 386.525289273594L818.9652017047956 386.525289273594Q822.0708809358844 379.21400275040605 827.8940294941757 374.64175277130323Q833.717178052467 370.0695027922004 839.8638348639968 370.0695027922004Q845.9889244586439 370.0695027922004 849.7200529793269 372.0105523116309Q853.4511815000099 373.9516018310613 855.6941720557961 376.34556290502553Q857.9587298284649 378.76109119587227 859.6625399621871 383.4196100425053Q861.3663500959094 388.0781288891384 862.0565010361514 391.03283760204914Q862.7682191932759 393.96597909807736 863.2211307478096 399.5734554875431L863.2211307478096 399.5734554875431Q863.8465800374039 407.0141453120264 863.8465800374039 413.0745332560259L863.8465800374039 413.0745332560259Q851.4238631130492 416.48215352347046 831.7114268823889 419.28589171820335L831.7114268823889 419.28589171820335Q832.1643384369227 425.4972501803807 833.8897157875275 429.22837870106366Q835.5935259212497 432.9595072217466 837.9227853445663 432.9595072217466ZM841.3304056120108 385.27439069440555L841.3304056120108 385.27439069440555Q837.9227853445663 385.27439069440555 835.2053160173637 392.1111984461772Q832.4878466901611 398.9480061979488 832.0133679187447 407.94153563797653L832.0133679187447 407.94153563797653Q840.2520447678828 406.23772550425423 846.3124327118823 404.6848858887099L846.3124327118823 404.6848858887099Q846.3124327118823 385.27439069440555 841.3304056120108 385.27439069440555ZM893.5015032509245 368.3441254415956L893.0485916963908 381.2413211373667Q899.2599501585681 371.7733129259227 908.4260173336563 371.7733129259227Q917.570517291862 371.7733129259227 922.7035149099113 379.21400275040605Q927.8365125279606 386.67625979177194 927.8365125279606 398.7970356797709L927.8365125279606 398.7970356797709Q927.8365125279606 416.80566177670886 920.1370161008866 431.55763812438016Q912.4590868906951 446.3096144720515 903.7674984870232 446.3096144720515L903.7674984870232 446.3096144720515Q897.5561400248458 446.3096144720515 893.0485916963908 444.75677485650715L893.0485916963908 444.75677485650715Q893.3505327327466 466.17302122088967 894.1269525405187 482.1758961477495L894.1269525405187 482.1758961477495L875.9673559254029 480.3211154958493Q875.1909361176307 452.370002416051 875.1909361176307 420.9250002012779Q875.1909361176307 389.4799979865048 877.3692250227693 366.6403153078733L877.3692250227693 366.6403153078733L893.5015032509245 368.3441254415956ZM897.7071105430238 430.78121831660803L897.7071105430238 430.78121831660803Q902.0421211364185 430.78121831660803 905.8595185246315 422.2406004311141Q909.6553486959622 413.6999825456202 909.6553486959622 405.073095792596Q909.6553486959622 396.4677762564544 908.1025090804179 391.7229885422911Q906.5496694648735 386.9782008281278 904.5439182947954 386.9782008281278L904.5439182947954 386.9782008281278Q901.1147308104682 386.9782008281278 898.5482320014437 391.03283760204914Q896.0033004093016 395.06590715908794 893.1995622145687 402.6791347186318L893.1995622145687 402.6791347186318Q893.0485916963908 410.74527383270936 893.0485916963908 427.5245685673414L893.0485916963908 427.5245685673414Q895.3778511197072 430.78121831660803 897.7071105430238 430.78121831660803ZM958.1168850310755 380.9393801010109L958.1168850310755 380.9393801010109Q965.255633819203 372.07525396227857 972.1571432216224 372.07525396227857Q979.0802198409242 372.07525396227857 983.4152304343188 376.7337728089116L983.4152304343188 376.7337728089116Q991.0284579938627 384.82147913987177 991.0284579938627 397.24419606422657L991.0284579938627 397.24419606422657Q991.0284579938627 419.7603704896197 989.3246478601404 444.2822960850908L989.3246478601404 444.2822960850908L971.3160217632026 442.5784859513686Q972.3943826073305 419.7603704896197 972.3943826073305 397.6971076187603L972.3943826073305 397.6971076187603Q972.3943826073305 389.4799979865048 968.2103425321138 389.4799979865048L968.2103425321138 389.4799979865048Q963.2283154322423 389.4799979865048 957.4914357414812 411.21975260412574L957.4914357414812 411.21975260412574Q957.1679274882429 426.74814875956923 955.9385961259369 446.46058499022945L955.9385961259369 446.46058499022945L937.7574322939385 444.75677485650715Q939.7847506808992 418.03499313901483 939.7847506808992 385.1234201762276Q939.7847506808992 352.2118472134404 938.7063898367711 332.17590272954175L938.7063898367711 332.17590272954175L956.865986451887 333.87971286326405Q958.1168850310755 355.77043799906284 958.1168850310755 380.9393801010109ZM1099.7272310819671 382.64319023473314L1080.4677064058408 376.28086125437784Q1082.4950247928014 368.667633694834 1082.4950247928014 363.53463607678464Q1082.4950247928014 358.4232056756178 1079.6912865980685 355.08028705882094Q1076.9091156202182 351.7373684420241 1072.4662689424108 351.7373684420241Q1068.044989481486 351.7373684420241 1065.0902807685752 356.09394625230124Q1062.157139272547 360.42895684569595 1062.157139272547 366.01486601827906L1062.157139272547 366.01486601827906Q1062.157139272547 376.8847433270895 1074.5798561969018 384.6489414048113L1074.5798561969018 384.6489414048113Q1087.0025731212565 392.73664773577144 1091.488554232829 396.2952385213939Q1095.9961025612843 399.8753965238989 1097.8724504300671 402.83010523680974L1097.8724504300671 402.83010523680974Q1102.5309692767 410.44333279635356 1102.5309692767 418.50947191043116L1102.5309692767 418.50947191043116Q1102.5309692767 432.4850284503303 1093.1276627159039 440.78840695011604Q1083.7243561551074 449.0917854499018 1071.9270885203468 449.0917854499018L1071.9270885203468 449.0917854499018Q1057.9515319804477 449.0917854499018 1048.4835237690036 437.29451781514126L1048.4835237690036 437.29451781514126Q1041.646716017232 428.75389992964733 1035.9098363264711 416.0292419689367L1035.9098363264711 416.0292419689367L1050.9637537104982 408.7179554457487Q1054.5439117130031 418.03499313901483 1059.8925814998781 424.48359098690037Q1065.2628185036356 430.9321888347859 1071.3016392307527 430.9321888347859L1071.3016392307527 430.9321888347859Q1075.1837382696135 430.9321888347859 1078.289417500702 428.45195889329153Q1081.3950967317908 425.97172895179705 1081.3950967317908 420.9250002012779Q1081.3950967317908 415.87827145075875 1077.51299769293 411.52169364048154Q1073.6308986540691 407.16511583020434 1067.117599155536 402.6791347186318Q1060.6042996570027 398.1715863901766 1057.0241416544977 395.3031465447961Q1053.4439836519925 392.41313948253304 1049.108973058598 387.92715837096046L1049.108973058598 387.92715837096046Q1040.8702962094599 379.21400275040605 1040.8702962094599 365.626656114393Q1040.8702962094599 352.0393094783799 1050.3383044209038 342.80854065264407Q1059.8278798492304 333.5777718269082 1072.8544788462968 333.5777718269082Q1085.902645060246 333.5777718269082 1094.8314728496262 343.6712293279465Q1103.760300639006 353.76468682898474 1103.760300639006 364.39732475208706Q1103.760300639006 375.0299626751893 1099.7272310819671 382.64319023473314L1099.7272310819671 382.64319023473314ZM1135.9170210109037 432.9595072217466L1135.9170210109037 432.9595072217466Q1141.8048712198427 432.9595072217466 1148.4907084534364 421.61515114151985L1148.4907084534364 421.61515114151985L1160.287976088197 428.6029294114694Q1157.3332673752861 433.7359270295188 1154.6157980480834 437.29451781514126Q1151.898328720881 440.8746758176463 1146.4633900664758 444.13132556691295Q1141.0284514120704 447.3879753161795 1134.364181395359 447.3879753161795L1134.364181395359 447.3879753161795Q1124.5726649306769 447.3879753161795 1117.886827697083 439.0845968163938Q1111.222557680372 430.78121831660803 1111.222557680372 416.65469125853093L1111.222557680372 416.65469125853093Q1111.222557680372 400.5008458134932 1116.959437371133 386.525289273594L1116.959437371133 386.525289273594Q1120.0651166022217 379.21400275040605 1125.8882651605131 374.64175277130323Q1131.7114137188044 370.0695027922004 1137.858070530334 370.0695027922004Q1143.9831601249812 370.0695027922004 1147.714288645664 372.0105523116309Q1151.4454171663472 373.9516018310613 1153.6884077221334 376.34556290502553Q1155.9313982779195 378.76109119587227 1157.6567756285244 383.4196100425053Q1159.360585762247 388.0781288891384 1160.0507367024888 391.03283760204914Q1160.7624548596132 393.96597909807736 1161.215366414147 399.5734554875431L1161.215366414147 399.5734554875431Q1161.840815703741 407.0141453120264 1161.840815703741 413.0745332560259L1161.840815703741 413.0745332560259Q1149.4180987793866 416.48215352347046 1129.7056625487262 419.28589171820335L1129.7056625487262 419.28589171820335Q1130.15857410326 425.4972501803807 1131.8623842369823 429.22837870106366Q1133.587761587587 432.9595072217466 1135.9170210109037 432.9595072217466ZM1139.3246412783483 385.27439069440555L1139.3246412783483 385.27439069440555Q1135.9170210109037 385.27439069440555 1133.199551683701 392.1111984461772Q1130.4820823564983 398.9480061979488 1130.007603585082 407.94153563797653L1130.007603585082 407.94153563797653Q1138.2462804342201 406.23772550425423 1144.285101161337 404.6848858887099L1144.285101161337 404.6848858887099Q1144.285101161337 385.27439069440555 1139.3246412783483 385.27439069440555ZM1204.2419640948551 370.22047331037834L1204.2419640948551 370.22047331037834Q1224.7308201332876 370.22047331037834 1224.7308201332876 404.38294485235406L1224.7308201332876 404.38294485235406Q1224.7308201332876 422.39157094929203 1222.7035017463268 442.5784859513686L1222.7035017463268 442.5784859513686L1204.543905131211 440.8746758176463Q1206.247715264933 423.16799075706416 1206.247715264933 405.073095792596Q1206.247715264933 386.9782008281278 1201.1362848637664 386.9782008281278L1201.1362848637664 386.9782008281278Q1198.6344877053893 386.9782008281278 1194.7523886665285 399.48718662001284Q1190.8702896276675 411.9961724118979 1189.9428993017175 423.94441056483635L1189.9428993017175 423.94441056483635Q1190.266407554956 430.3067395451917 1191.193797880906 446.9350637616458L1191.193797880906 446.9350637616458L1173.0126340489076 445.20968641104093Q1171.3088239151853 423.3189612752421 1171.3088239151853 406.71220427567056Q1171.3088239151853 390.0838800592165 1172.2362142411353 376.8847433270895L1172.2362142411353 376.8847433270895L1183.7315408395402 378.135641906278Q1184.0550490927785 379.3865404854665 1186.0608002628564 388.2290994073163L1186.0608002628564 388.2290994073163Q1195.0758969197668 370.22047331037834 1204.2419640948551 370.22047331037834ZM1274.7236288670624 366.33837427151747L1274.7236288670624 366.33837427151747L1289.6481429497944 375.0299626751893Q1276.7509472540232 414.9293139079261 1263.2498694855403 480.92499756856097L1263.2498694855403 480.92499756856097L1246.1686337145525 479.37215795301665Q1248.648863656047 467.1219787637223 1254.385743346808 445.53319466427934L1254.385743346808 445.53319466427934Q1239.4827964809588 416.9566322948868 1235.600697442098 373.47712305964495L1235.600697442098 373.47712305964495L1252.9838742494417 375.18093319336725Q1255.3131336727579 403.7574955627598 1260.4461312908074 423.94441056483635L1260.4461312908074 423.94441056483635Q1267.584880078935 390.70932934881074 1274.7236288670624 366.33837427151747ZM1310.4389400245825 416.1802124871146L1310.4389400245825 416.1802124871146Q1310.4389400245825 433.7359270295188 1318.2031381023044 433.7359270295188L1318.2031381023044 433.7359270295188Q1321.6323255866314 433.7359270295188 1323.961585009948 423.8581416973061Q1326.2908444332643 414.001923581976 1326.2908444332643 405.0083941419483L1326.2908444332643 405.0083941419483Q1326.2908444332643 385.1234201762276 1319.7559777178485 385.1234201762276L1319.7559777178485 385.1234201762276Q1315.5719376426318 385.1234201762276 1313.005438833607 395.7560580993299Q1310.4389400245825 406.38869602243216 1310.4389400245825 416.1802124871146ZM1292.2793434094667 414.77834338974816L1292.2793434094667 414.77834338974816Q1292.2793434094667 400.34987529531526 1298.1887608352883 386.525289273594L1298.1887608352883 386.525289273594Q1301.2944400663769 379.53751100364445 1306.945050889608 375.11623154271956Q1312.617228929721 370.6733848649121 1319.6050071996706 370.6733848649121Q1326.5927854696201 370.6733848649121 1331.6395142201395 373.86533296353105Q1336.6862429706584 377.05728106215 1339.3390106472134 382.31968198149474L1339.3390106472134 382.31968198149474Q1344.4504410483805 392.73664773577144 1344.4504410483805 405.0083941419483L1344.4504410483805 405.0083941419483Q1344.4504410483805 421.9170921778757 1337.5489316459611 435.051527259355Q1330.625855026659 448.1643951239517 1318.2031381023044 448.1643951239517L1318.2031381023044 448.1643951239517Q1292.2793434094667 448.1643951239517 1292.2793434094667 414.77834338974816ZM1385.6006908603056 370.22047331037834L1385.6006908603056 370.22047331037834Q1406.1111141156205 370.22047331037834 1406.1111141156205 404.38294485235406L1406.1111141156205 404.38294485235406Q1406.1111141156205 422.39157094929203 1404.0837957286599 442.5784859513686L1404.0837957286599 442.5784859513686L1385.9241991135439 440.8746758176463Q1387.6280092472662 423.16799075706416 1387.6280092472662 405.073095792596Q1387.6280092472662 386.9782008281278 1382.495011629217 386.9782008281278L1382.495011629217 386.9782008281278Q1380.0147816877225 386.9782008281278 1376.1326826488616 399.48718662001284Q1372.2505836100006 411.9961724118979 1371.3231932840506 423.94441056483635L1371.3231932840506 423.94441056483635Q1371.6251343204065 430.3067395451917 1372.5525246463565 446.9350637616458L1372.5525246463565 446.9350637616458L1354.3929280312407 445.20968641104093Q1352.6891178975184 423.3189612752421 1352.6891178975184 406.71220427567056Q1352.6891178975184 390.0838800592165 1353.6165082234684 376.8847433270895L1353.6165082234684 376.8847433270895L1365.1118348218731 378.135641906278Q1365.413775858229 379.3865404854665 1367.4410942451896 388.2290994073163L1367.4410942451896 388.2290994073163Q1376.4346236852175 370.22047331037834 1385.6006908603056 370.22047331037834ZM1441.5029170199023 464.9436898585837L1441.5029170199023 464.9436898585837Q1446.312406384713 464.9436898585837 1449.267115097624 455.0874717432536Q1452.2218238105347 445.20968641104093 1452.2218238105347 430.6302477984301L1452.2218238105347 430.6302477984301Q1443.9831469613966 445.3822241461014 1435.226856907077 445.3822241461014Q1426.448999635875 445.3822241461014 1421.0787626321176 439.38653785274965Q1415.7300928452426 433.4124187762804 1415.7300928452426 421.22694123763375Q1415.7300928452426 409.0414636989871 1419.9141329204595 397.0069566785184Q1424.1197402125586 384.9724496580497 1430.2448298072056 377.7474320023919Q1436.3914866187354 370.5224143467342 1441.9773957913185 370.5224143467342L1441.9773957913185 370.5224143467342Q1451.7473450391185 370.5224143467342 1459.9860218882566 378.43758294263387L1459.9860218882566 378.43758294263387L1470.8558991970672 379.99042255817824Q1468.8285808101064 390.0838800592165 1468.8285808101064 410.9825132184175Q1468.8285808101064 431.859579160736 1467.663951098448 441.71579727606616Q1466.4993213867897 451.59358260827884 1463.8681209271174 461.0615908197229Q1461.236920467445 470.52959903116687 1456.1039228493955 476.11550820375004Q1450.9709252313464 481.70141737633315 1442.6028450809129 481.70141737633315Q1434.2131977135969 481.70141737633315 1426.599970154053 474.9508784920917Q1418.9867425945092 468.20033960785037 1414.328223747876 458.7323313964063L1414.328223747876 458.7323313964063L1427.3763899618252 453.1464222238232Q1433.4367779058246 464.9436898585837 1441.5029170199023 464.9436898585837ZM1445.8594948301793 386.3743187554161L1445.8594948301793 386.3743187554161Q1441.9773957913185 386.3743187554161 1438.0090278849275 397.54613710058237Q1434.062227195419 408.7179554457487 1434.062227195419 421.313210105164L1434.062227195419 421.313210105164Q1434.062227195419 426.122699469975 1435.377827425255 428.6029294114694Q1436.6934276550912 431.08315935296383 1438.3325361381658 431.08315935296383Q1439.9500774043577 431.08315935296383 1442.6028450809129 427.97748012187515Q1445.2340455405852 424.87180089078646 1448.2534559041437 418.03499313901483Q1451.2944334845847 411.21975260412574 1452.6963025819512 402.9810757549876L1452.6963025819512 402.9810757549876L1452.9982436183068 391.18380812022707Q1448.4906952898518 386.3743187554161 1445.8594948301793 386.3743187554161ZM1481.4238354695217 398.32255690835456Q1483.7530948928381 386.2017810203556 1490.2663943913715 377.7474320023919Q1496.7796938899046 369.2930829844282 1507.347630162359 369.2930829844282Q1517.9155664348139 369.2930829844282 1522.962295185333 378.0493730387478Q1528.0090239358522 386.82723030994987 1528.0090239358522 402.9810757549876Q1528.0090239358522 419.13492120002536 1526.1326760670695 447.53894583435743L1526.1326760670695 447.53894583435743L1513.0845098531204 446.46058499022945L1511.8551784908145 441.50012510724054Q1504.5438919676262 445.68416518245726 1496.952231624965 445.68416518245726Q1489.3390040654212 445.68416518245726 1484.3569769655498 440.6374364319381Q1479.3965170825609 435.590707681419 1479.3965170825609 426.122699469975Q1479.3965170825609 416.65469125853093 1488.7998236433573 409.8178835067593Q1498.1815629872708 402.9810757549876 1510.4533093934479 402.6791347186318L1510.4533093934479 402.6791347186318L1510.4533093934479 398.4735274265325Q1510.4533093934479 386.2017810203556 1504.5438919676262 386.2017810203556L1504.5438919676262 386.2017810203556Q1501.6107504715983 386.2017810203556 1499.1952221807514 390.32111944492465Q1496.7796938899046 394.4404578694937 1495.7013330457767 399.724426005721L1495.7013330457767 399.724426005721L1481.4238354695217 398.32255690835456ZM1495.22685427436 427.0500897959251L1495.22685427436 427.0500897959251Q1495.22685427436 432.01054967891395 1501.1362717001816 432.01054967891395L1501.1362717001816 432.01054967891395Q1505.1693412572206 432.01054967891395 1509.6768895856758 430.1557690270137L1509.6768895856758 430.1557690270137L1509.9788306220316 417.1076028130647Q1502.6891113157262 417.733052102659 1498.957982795043 420.7524624662174Q1495.22685427436 423.7934400466584 1495.22685427436 427.0500897959251Z " fill="#161b21" transform="matrix(0.572640639478539,0,0,0.572640639478539,0,66.8345402684246)"/></g></svg>