<svg width="477" height="52" viewBox="0 0 477 52" fill="none" xmlns="http://www.w3.org/2000/svg">
<path d="M0.644722 51.66V44.64H2.46472C3.74739 44.64 4.71806 44.2933 5.37672 43.6C6.03539 42.9413 6.36472 41.988 6.36472 40.74V12.504H14.4247V40.48C14.4247 43.2187 13.9914 45.4027 13.1247 47.032C12.2927 48.6613 10.9581 49.84 9.12072 50.568C7.31806 51.296 4.99539 51.66 2.15272 51.66H0.644722ZM2.41272 18.64V12.504H14.4247V18.64H2.41272ZM9.32872 9.592C7.76872 9.592 6.60739 9.19333 5.84472 8.396C5.11672 7.564 4.75272 6.524 4.75272 5.276C4.75272 3.99333 5.11672 2.95333 5.84472 2.156C6.60739 1.324 7.76872 0.907999 9.32872 0.907999C10.9234 0.907999 12.0847 1.324 12.8127 2.156C13.5407 2.95333 13.9047 3.99333 13.9047 5.276C13.9047 6.524 13.5407 7.564 12.8127 8.396C12.0847 9.19333 10.9234 9.592 9.32872 9.592ZM37.2978 41.988C34.8018 41.988 32.5831 41.6067 30.6418 40.844C28.7005 40.0467 27.0538 38.972 25.7018 37.62C24.3845 36.268 23.3791 34.7253 22.6858 32.992C21.9925 31.224 21.6458 29.3693 21.6458 27.428V26.232C21.6458 24.256 21.9925 22.384 22.6858 20.616C23.4138 18.8133 24.4538 17.236 25.8058 15.884C27.1925 14.532 28.8565 13.4747 30.7978 12.712C32.7391 11.9147 34.9058 11.516 37.2978 11.516C39.7591 11.516 41.9431 11.9147 43.8498 12.712C45.7911 13.4747 47.4378 14.532 48.7898 15.884C50.1418 17.236 51.1818 18.8133 51.9098 20.616C52.6378 22.384 53.0018 24.256 53.0018 26.232V27.428C53.0018 29.3693 52.6551 31.224 51.9618 32.992C51.2685 34.7253 50.2458 36.268 48.8938 37.62C47.5765 38.972 45.9471 40.0467 44.0058 40.844C42.0645 41.6067 39.8285 41.988 37.2978 41.988ZM37.2978 34.968C38.9271 34.968 40.2791 34.6213 41.3538 33.928C42.4285 33.2347 43.2431 32.264 43.7978 31.016C44.3871 29.768 44.6818 28.3813 44.6818 26.856C44.6818 25.2267 44.3871 23.8053 43.7978 22.592C43.2085 21.344 42.3591 20.356 41.2498 19.628C40.1751 18.9 38.8578 18.536 37.2978 18.536C35.7725 18.536 34.4551 18.9 33.3458 19.628C32.2365 20.356 31.3871 21.344 30.7978 22.592C30.2431 23.8053 29.9658 25.2267 29.9658 26.856C29.9658 28.3813 30.2431 29.768 30.7978 31.016C31.3525 32.264 32.1845 33.2347 33.2938 33.928C34.4031 34.6213 35.7378 34.968 37.2978 34.968ZM71.1843 41.884C67.1283 41.884 63.9563 41.052 61.6683 39.388C59.3803 37.724 58.167 35.384 58.0283 32.368H65.4123C65.551 33.2693 66.0883 34.084 67.0243 34.812C67.995 35.5053 69.4337 35.852 71.3403 35.852C72.7963 35.852 73.9923 35.6093 74.9283 35.124C75.899 34.604 76.3843 33.876 76.3843 32.94C76.3843 32.108 76.0203 31.4493 75.2923 30.964C74.5643 30.444 73.2643 30.08 71.3923 29.872L69.1563 29.664C65.7243 29.3173 63.1417 28.364 61.4083 26.804C59.7097 25.244 58.8603 23.2507 58.8603 20.824C58.8603 18.8133 59.363 17.132 60.3683 15.78C61.3737 14.428 62.7603 13.4053 64.5283 12.712C66.331 12.0187 68.3763 11.672 70.6643 11.672C74.339 11.672 77.303 12.4867 79.5563 14.116C81.8097 15.7107 82.9883 18.0333 83.0923 21.084H75.7083C75.5697 20.148 75.0843 19.368 74.2523 18.744C73.4203 18.0853 72.1897 17.756 70.5603 17.756C69.2777 17.756 68.255 17.9987 67.4923 18.484C66.7297 18.9693 66.3483 19.628 66.3483 20.46C66.3483 21.2573 66.6777 21.864 67.3363 22.28C67.995 22.696 69.0697 22.9907 70.5603 23.164L72.7963 23.372C76.2977 23.7533 79.019 24.724 80.9603 26.284C82.9017 27.844 83.8723 29.9413 83.8723 32.576C83.8723 34.4827 83.3523 36.1467 82.3123 37.568C81.2723 38.9547 79.799 40.0293 77.8923 40.792C75.9857 41.52 73.7497 41.884 71.1843 41.884ZM103.875 41.988C101.448 41.988 99.2989 41.572 97.4269 40.74C95.5895 39.908 94.0469 38.7987 92.7989 37.412C91.5855 35.9907 90.6495 34.4133 89.9909 32.68C89.3669 30.912 89.0549 29.1093 89.0549 27.272V26.232C89.0549 24.3253 89.3669 22.5053 89.9909 20.772C90.6495 19.004 91.5855 17.4267 92.7989 16.04C94.0122 14.6533 95.5202 13.5613 97.3229 12.764C99.1602 11.932 101.24 11.516 103.563 11.516C106.614 11.516 109.179 12.2093 111.259 13.596C113.374 14.948 114.986 16.7333 116.095 18.952C117.204 21.136 117.759 23.528 117.759 26.128V28.936H92.5389V24.204H112.715L110.011 26.388C110.011 24.6893 109.768 23.2333 109.283 22.02C108.798 20.8067 108.07 19.888 107.099 19.264C106.163 18.6053 104.984 18.276 103.563 18.276C102.107 18.276 100.876 18.6053 99.8709 19.264C98.8655 19.9227 98.1029 20.8933 97.5829 22.176C97.0629 23.424 96.8029 24.9667 96.8029 26.804C96.8029 28.5027 97.0455 29.9933 97.5309 31.276C98.0162 32.524 98.7789 33.4947 99.8189 34.188C100.859 34.8813 102.211 35.228 103.875 35.228C105.4 35.228 106.648 34.9333 107.619 34.344C108.59 33.7547 109.248 33.0267 109.595 32.16H117.239C116.823 34.0667 116.008 35.7653 114.795 37.256C113.582 38.7467 112.056 39.908 110.219 40.74C108.382 41.572 106.267 41.988 103.875 41.988ZM124.832 51.4V12.504H131.436V24.828L130.552 24.776C130.691 21.9333 131.28 19.5413 132.32 17.6C133.36 15.624 134.764 14.1507 136.532 13.18C138.3 12.1747 140.293 11.672 142.512 11.672C144.488 11.672 146.273 12.036 147.868 12.764C149.497 13.492 150.884 14.5147 152.028 15.832C153.207 17.1147 154.091 18.64 154.68 20.408C155.304 22.1413 155.616 24.048 155.616 26.128V27.324C155.616 29.3693 155.321 31.2933 154.732 33.096C154.143 34.864 153.276 36.4067 152.132 37.724C151.023 39.0413 149.653 40.0813 148.024 40.844C146.429 41.572 144.592 41.936 142.512 41.936C140.363 41.936 138.421 41.5027 136.688 40.636C134.989 39.7347 133.62 38.3827 132.58 36.58C131.54 34.7427 130.968 32.42 130.864 29.612L133.152 32.732V51.4H124.832ZM140.172 34.968C141.593 34.968 142.824 34.6213 143.864 33.928C144.939 33.2347 145.771 32.264 146.36 31.016C146.949 29.768 147.244 28.3293 147.244 26.7C147.244 25.0707 146.949 23.6493 146.36 22.436C145.771 21.2227 144.956 20.2867 143.916 19.628C142.876 18.9347 141.628 18.588 140.172 18.588C138.924 18.588 137.745 18.8827 136.636 19.472C135.527 20.0613 134.625 20.9107 133.932 22.02C133.273 23.0947 132.944 24.412 132.944 25.972V27.896C132.944 29.3867 133.291 30.6693 133.984 31.744C134.712 32.784 135.631 33.5813 136.74 34.136C137.849 34.6907 138.993 34.968 140.172 34.968ZM162.955 41V3.04H171.275V24.932H170.027C170.027 22.0547 170.391 19.628 171.119 17.652C171.847 15.676 172.921 14.1853 174.343 13.18C175.764 12.14 177.549 11.62 179.699 11.62H180.063C183.217 11.62 185.627 12.7467 187.291 15C188.955 17.2187 189.787 20.4773 189.787 24.776V41H181.467V24.256C181.467 22.696 180.999 21.448 180.063 20.512C179.161 19.5413 177.965 19.056 176.475 19.056C174.915 19.056 173.649 19.5587 172.679 20.564C171.743 21.5693 171.275 22.904 171.275 24.568V41H162.955ZM221.397 41.728C218.103 41.728 215.59 40.9653 213.857 39.44C212.123 37.88 211.257 35.9387 211.257 33.616H212.921C212.921 35.4187 213.579 36.9613 214.897 38.244C216.249 39.5267 218.415 40.168 221.397 40.168C224.378 40.168 226.527 39.5267 227.845 38.244C229.197 36.9267 229.873 35.384 229.873 33.616C229.873 31.848 229.214 30.496 227.897 29.56C226.579 28.624 224.933 28.052 222.957 27.844L219.629 27.48C217.375 27.2027 215.607 26.4747 214.325 25.296C213.042 24.1173 212.401 22.5573 212.401 20.616C212.401 19.264 212.747 18.0333 213.441 16.924C214.134 15.78 215.157 14.8613 216.509 14.168C217.861 13.4747 219.49 13.128 221.397 13.128C224.066 13.128 226.233 13.8213 227.897 15.208C229.561 16.5947 230.393 18.3973 230.393 20.616H228.729C228.763 18.9173 228.139 17.5133 226.857 16.404C225.574 15.26 223.754 14.688 221.397 14.688C218.866 14.688 217.011 15.2947 215.833 16.508C214.654 17.7213 214.065 19.1253 214.065 20.72C214.065 22.0373 214.55 23.1987 215.521 24.204C216.491 25.1747 217.913 25.764 219.785 25.972L223.113 26.336C225.47 26.5787 227.463 27.3067 229.093 28.52C230.722 29.6987 231.537 31.432 231.537 33.72C231.537 35.176 231.138 36.5107 230.341 37.724C229.578 38.9373 228.451 39.908 226.961 40.636C225.47 41.364 223.615 41.728 221.397 41.728ZM252.837 41.832C250.584 41.832 248.625 41.4333 246.961 40.636C245.297 39.8387 243.928 38.764 242.853 37.412C241.778 36.0253 240.964 34.4827 240.409 32.784C239.889 31.0507 239.629 29.2827 239.629 27.48V27.168C239.629 25.4 239.889 23.684 240.409 22.02C240.964 20.356 241.778 18.848 242.853 17.496C243.962 16.144 245.314 15.0867 246.909 14.324C248.538 13.5267 250.41 13.128 252.525 13.128C255.16 13.128 257.396 13.7347 259.233 14.948C261.105 16.1613 262.526 17.7387 263.497 19.68C264.502 21.5867 265.005 23.6147 265.005 25.764V27.428H240.513V25.868H264.121L263.445 26.388C263.445 24.204 263.012 22.228 262.145 20.46C261.278 18.692 260.03 17.288 258.401 16.248C256.772 15.208 254.813 14.688 252.525 14.688C250.029 14.688 247.932 15.2773 246.233 16.456C244.569 17.6347 243.304 19.1773 242.437 21.084C241.605 22.9907 241.189 25.0707 241.189 27.324C241.189 29.612 241.605 31.744 242.437 33.72C243.304 35.6613 244.586 37.2387 246.285 38.452C248.018 39.6653 250.202 40.272 252.837 40.272C255.68 40.272 257.968 39.6133 259.701 38.296C261.434 36.944 262.509 35.3147 262.925 33.408H264.589C264.242 35.0373 263.549 36.4933 262.509 37.776C261.469 39.024 260.134 40.012 258.505 40.74C256.91 41.468 255.021 41.832 252.837 41.832ZM274.862 41V13.96H276.214V24.776H275.59C275.59 22.5573 275.989 20.5813 276.786 18.848C277.584 17.1147 278.745 15.7453 280.27 14.74C281.83 13.7347 283.754 13.232 286.042 13.232H286.146C289.544 13.232 292.109 14.2893 293.842 16.404C295.61 18.5187 296.494 21.3093 296.494 24.776V41H294.83V24.36C294.83 21.5173 294.068 19.212 292.542 17.444C291.052 15.676 288.868 14.792 285.99 14.792C283.078 14.792 280.773 15.6933 279.074 17.496C277.376 19.2987 276.526 21.656 276.526 24.568V41H274.862ZM305.13 51.504V49.944H307.782C309.03 49.944 310.122 49.788 311.058 49.476C312.029 49.1987 312.878 48.6613 313.606 47.864C314.334 47.0667 314.958 45.888 315.478 44.328L325.722 13.96H327.386L316.83 45.004C316.275 46.6333 315.547 47.916 314.646 48.852C313.779 49.8227 312.757 50.4987 311.578 50.88C310.399 51.296 309.099 51.504 307.678 51.504H305.13ZM315.062 40.272V38.712H317.818V40.272H315.062ZM314.594 40.272L304.61 13.96H306.326L316.258 40.272H314.594ZM347.718 41.832C345.499 41.832 343.523 41.4333 341.79 40.636C340.091 39.804 338.653 38.712 337.474 37.36C336.33 36.008 335.446 34.5 334.822 32.836C334.233 31.1373 333.938 29.404 333.938 27.636V27.324C333.938 25.5213 334.25 23.7707 334.874 22.072C335.498 20.3733 336.399 18.8653 337.578 17.548C338.757 16.196 340.195 15.1213 341.894 14.324C343.593 13.5267 345.534 13.128 347.718 13.128C349.902 13.128 351.843 13.5267 353.542 14.324C355.241 15.1213 356.679 16.196 357.858 17.548C359.037 18.8653 359.938 20.3733 360.562 22.072C361.186 23.7707 361.498 25.5213 361.498 27.324V27.636C361.498 29.404 361.186 31.1373 360.562 32.836C359.973 34.5 359.089 36.008 357.91 37.36C356.766 38.712 355.327 39.804 353.594 40.636C351.895 41.4333 349.937 41.832 347.718 41.832ZM347.718 40.272C350.353 40.272 352.554 39.6653 354.322 38.452C356.125 37.2387 357.494 35.6613 358.43 33.72C359.366 31.7787 359.834 29.6987 359.834 27.48C359.834 25.192 359.349 23.0773 358.378 21.136C357.442 19.1947 356.073 17.6347 354.27 16.456C352.467 15.2773 350.283 14.688 347.718 14.688C345.187 14.688 343.003 15.2773 341.166 16.456C339.363 17.6347 337.977 19.1947 337.006 21.136C336.07 23.0773 335.602 25.192 335.602 27.48C335.602 29.6987 336.07 31.7787 337.006 33.72C337.942 35.6613 339.311 37.2387 341.114 38.452C342.917 39.6653 345.118 40.272 347.718 40.272ZM371.913 41V13.96H373.265V24.776H372.641C372.641 22.5573 373.04 20.5813 373.837 18.848C374.635 17.1147 375.796 15.7453 377.321 14.74C378.881 13.7347 380.805 13.232 383.093 13.232H383.197C386.595 13.232 389.16 14.2893 390.893 16.404C392.661 18.5187 393.545 21.3093 393.545 24.776V41H391.881V24.36C391.881 21.5173 391.119 19.212 389.593 17.444C388.103 15.676 385.919 14.792 383.041 14.792C380.129 14.792 377.824 15.6933 376.125 17.496C374.427 19.2987 373.577 21.656 373.577 24.568V41H371.913ZM416.424 51.608C415.211 51.608 413.945 51.5387 412.628 51.4C411.311 51.296 410.045 51.14 408.832 50.932V49.372C410.08 49.58 411.38 49.736 412.732 49.84C414.119 49.9787 415.419 50.048 416.632 50.048C419.509 50.048 421.763 49.684 423.392 48.956C425.056 48.228 426.235 47.0147 426.928 45.316C427.621 43.652 427.968 41.3813 427.968 38.504V32.68L429.008 28.988C429.008 31.3107 428.505 33.4427 427.5 35.384C426.529 37.3253 425.108 38.8853 423.236 40.064C421.399 41.2427 419.18 41.832 416.58 41.832C414.5 41.832 412.645 41.4333 411.016 40.636C409.421 39.8387 408.069 38.764 406.96 37.412C405.885 36.06 405.053 34.5347 404.464 32.836C403.909 31.1373 403.632 29.404 403.632 27.636V27.324C403.632 25.66 403.909 23.996 404.464 22.332C405.019 20.6333 405.833 19.0907 406.908 17.704C407.983 16.3173 409.335 15.208 410.964 14.376C412.593 13.544 414.465 13.128 416.58 13.128C419.215 13.128 421.468 13.752 423.34 15C425.212 16.2133 426.633 17.808 427.604 19.784C428.609 21.7253 429.112 23.788 429.112 25.972L428.28 23.84V13.96H429.632V38.556C429.632 41.78 429.199 44.3453 428.332 46.252C427.5 48.1587 426.113 49.528 424.172 50.36C422.231 51.192 419.648 51.608 416.424 51.608ZM416.684 40.272C418.972 40.272 420.965 39.7693 422.664 38.764C424.363 37.7587 425.68 36.3893 426.616 34.656C427.587 32.9227 428.072 30.9987 428.072 28.884V26.076C428.072 24.0653 427.604 22.2107 426.668 20.512C425.767 18.7787 424.467 17.3747 422.768 16.3C421.069 15.2253 419.041 14.688 416.684 14.688C414.188 14.688 412.091 15.312 410.392 16.56C408.728 17.808 407.463 19.4027 406.596 21.344C405.729 23.2853 405.296 25.3307 405.296 27.48C405.296 29.7333 405.747 31.848 406.648 33.824C407.549 35.7653 408.849 37.3253 410.548 38.504C412.247 39.6827 414.292 40.272 416.684 40.272ZM458.755 41V32.888H458.443V22.696C458.443 20.3733 457.819 18.5533 456.571 17.236C455.358 15.9187 453.261 15.26 450.279 15.26C449.378 15.26 448.477 15.2947 447.575 15.364C446.709 15.3987 445.877 15.4507 445.079 15.52C444.317 15.5893 443.606 15.676 442.947 15.78V14.22C443.641 14.116 444.351 14.0293 445.079 13.96C445.807 13.856 446.535 13.7867 447.263 13.752C448.026 13.7173 448.754 13.7 449.447 13.7C452.151 13.7 454.266 14.064 455.791 14.792C457.351 15.52 458.461 16.5773 459.119 17.964C459.778 19.3507 460.107 21.0667 460.107 23.112V41H458.755ZM449.031 41.728C447.333 41.728 445.755 41.416 444.299 40.792C442.878 40.1333 441.734 39.18 440.867 37.932C440.035 36.684 439.619 35.1587 439.619 33.356C439.619 31.7267 440.001 30.3053 440.763 29.092C441.561 27.8787 442.687 26.9427 444.143 26.284C445.599 25.6253 447.367 25.296 449.447 25.296H458.547V26.752H449.135C446.605 26.752 444.663 27.3587 443.311 28.572C441.959 29.7853 441.283 31.3973 441.283 33.408C441.283 35.5573 442.029 37.2387 443.519 38.452C445.01 39.6653 446.882 40.272 449.135 40.272C450.591 40.272 452.013 39.9947 453.399 39.44C454.786 38.8853 455.947 37.9493 456.883 36.632C457.854 35.28 458.374 33.4773 458.443 31.224L459.275 32.056C459.206 34.24 458.686 36.06 457.715 37.516C456.745 38.9373 455.497 39.9947 453.971 40.688C452.481 41.3813 450.834 41.728 449.031 41.728Z" fill="white"/>
<path d="M470.75 41V34.656H476.782V41H470.75Z" fill="#F13024"/>
</svg>
